<?xml version="1.0" encoding="utf-8"?>
<!-- Generator: Adobe Illustrator 16.0.0, SVG Export Plug-In . SVG Version: 6.00 Build 0)  -->
<!DOCTYPE svg PUBLIC "-//W3C//DTD SVG 1.1//EN" "http://www.w3.org/Graphics/SVG/1.1/DTD/svg11.dtd">
<svg version="1.1" xmlns="http://www.w3.org/2000/svg" xmlns:xlink="http://www.w3.org/1999/xlink" x="0px" y="0px" width="468px"
	 height="461px" viewBox="0 0 468 461" enable-background="new 0 0 468 461" xml:space="preserve">
<g id="Banner">
	<g>
		<path fill="none" stroke="#000000" stroke-width="3" stroke-miterlimit="10" d="M103.863,100.173l0.023,16.26l-3.362,0.113
			l-4.585-0.264l-3.862-0.605l-2.451-0.647v-5.972c4.875,0.019,16.893-3.719,13.738-12.494C99.471,85.734,75.207,92.909,75,108.839
			l0.418,0.246c4.926,2.874,9.638,4.834,14.196,6.021c4.903,1.277,9.628,1.66,14.252,1.324
			c40.333-2.932,72.926-60.569,148.385-56.485h2.496c75.459-4.084,108.052,53.553,148.386,56.485
			c4.623,0.336,9.349-0.047,14.252-1.324c4.558-1.187,9.27-3.147,14.196-6.021l0.418-0.246
			c-0.206-15.931-24.472-23.105-28.364-12.276c-3.156,8.774,8.862,12.513,13.737,12.494v5.972l-2.45,0.647l-3.862,0.605
			l-4.584,0.264l-3.363-0.113l0.024-16.26"/>
		<path fill="none" stroke="#000000" stroke-width="3" stroke-miterlimit="10" d="M431.582,109.085
			c0.14-0.081,0.278-0.163,0.418-0.246c0,14.138,0,26.278,0,40.417c-80.186,23.688-95.19-53.312-177.252-51.894h-2.496
			C170.191,95.945,155.185,172.945,75,149.257c0-14.139,0-26.28,0-40.417"/>
		<path fill="none" d="M75,134.359c80.186,23.688,95.19-53.313,177.252-51.895h2.496c82.061-1.418,97.066,75.582,177.252,51.895"/>
		
			<text transform="matrix(0.95 0.0619 -0.065 0.9979 91.1719 138.2363)" stroke="#000000" font-family="'Arial-BoldMT'" font-size="21">C</text>
		
			<text transform="matrix(0.9434 -0.1278 0.1342 0.991 107.4556 139.1465)" stroke="#000000" font-family="'Arial-BoldMT'" font-size="21">A</text>
		
			<text transform="matrix(0.9002 -0.3098 0.3254 0.9456 123.5488 136.7021)" stroke="#000000" font-family="'Arial-BoldMT'" font-size="21">P</text>
		
			<text transform="matrix(0.8453 -0.4379 0.46 0.8879 137.3706 131.7749)" stroke="#000000" font-family="'Arial-BoldMT'" font-size="21">E</text>
		
			<text transform="matrix(0.8139 -0.4939 0.5188 0.8549 149.6646 125.2085)" stroke="#000000" font-family="'Arial-BoldMT'" font-size="21"> </text>
		
			<text transform="matrix(0.8008 -0.5149 0.5408 0.8411 154.6323 122.1841)" stroke="#000000" font-family="'Arial-BoldMT'" font-size="21">I</text>
		
			<text transform="matrix(0.7886 -0.5333 0.5602 0.8284 159.3726 119.1699)" stroke="#000000" font-family="'Arial-BoldMT'" font-size="21">N</text>
		
			<text transform="matrix(0.7939 -0.5253 0.5518 0.834 171.2671 111.0654)" stroke="#000000" font-family="'Arial-BoldMT'" font-size="21">S</text>
		
			<text transform="matrix(0.8177 -0.4875 0.5121 0.8589 182.2222 103.7856)" stroke="#000000" font-family="'Arial-BoldMT'" font-size="21">T</text>
		
			<text transform="matrix(0.8414 -0.4454 0.4678 0.8838 192.6079 97.6753)" stroke="#000000" font-family="'Arial-BoldMT'" font-size="21">I</text>
		
			<text transform="matrix(0.8676 -0.3919 0.4116 0.9113 197.2583 95.0786)" stroke="#000000" font-family="'Arial-BoldMT'" font-size="21">T</text>
		
			<text transform="matrix(0.9053 -0.2946 0.3094 0.9509 208 90.1196)" stroke="#000000" font-family="'Arial-BoldMT'" font-size="21">U</text>
		
			<text transform="matrix(0.9337 -0.1858 0.1952 0.9808 221.3677 85.8115)" stroke="#000000" font-family="'Arial-BoldMT'" font-size="21">T</text>
		
			<text transform="matrix(0.9485 -0.0819 0.086 0.9963 232.9458 83.4609)" stroke="#000000" font-family="'Arial-BoldMT'" font-size="21">E</text>
		
			<text transform="matrix(0.9519 -0.0143 0.015 0.9999 245.9995 82.4932)" stroke="#000000" font-family="'Arial-BoldMT'" font-size="21"> </text>
		
			<text transform="matrix(0.9518 0.0196 -0.0206 0.9998 251.415 82.3047)" stroke="#000000" font-family="'Arial-BoldMT'" font-size="21">O</text>
		
			<text transform="matrix(0.9437 0.1254 -0.1317 0.9913 266.5781 82.6538)" stroke="#000000" font-family="'Arial-BoldMT'" font-size="21">F</text>
		
			<text transform="matrix(0.9311 0.1985 -0.2085 0.978 278.3809 84.3403)" stroke="#000000" font-family="'Arial-BoldMT'" font-size="21"> </text>
		
			<text transform="matrix(0.9126 0.2712 -0.2849 0.9586 283.5645 85.3008)" stroke="#000000" font-family="'Arial-BoldMT'" font-size="21">T</text>
		
			<text transform="matrix(0.8779 0.3683 -0.3869 0.9221 294.9443 88.6426)" stroke="#000000" font-family="'Arial-BoldMT'" font-size="21">E</text>
		
			<text transform="matrix(0.837 0.4536 -0.4764 0.8792 306.9209 93.6494)" stroke="#000000" font-family="'Arial-BoldMT'" font-size="21">C</text>
		
			<text transform="matrix(0.8027 0.5119 -0.5377 0.8431 319.3701 100.437)" stroke="#000000" font-family="'Arial-BoldMT'" font-size="21">H</text>
		
			<text transform="matrix(0.7877 0.5346 -0.5616 0.8274 331.4326 108.1953)" stroke="#000000" font-family="'Arial-BoldMT'" font-size="21">N</text>
		
			<text transform="matrix(0.8005 0.5152 -0.5412 0.8409 343.3877 116.4063)" stroke="#000000" font-family="'Arial-BoldMT'" font-size="21">O</text>
		
			<text transform="matrix(0.8405 0.4471 -0.4696 0.8829 357.1084 125.2051)" stroke="#000000" font-family="'Arial-BoldMT'" font-size="21">L</text>
		
			<text transform="matrix(0.8974 0.3178 -0.3338 0.9426 369.0859 131.6816)" stroke="#000000" font-family="'Arial-BoldMT'" font-size="21">O</text>
		
			<text transform="matrix(0.9451 0.1145 -0.1202 0.9927 385.7559 137.3818)" stroke="#000000" font-family="'Arial-BoldMT'" font-size="21">G</text>
		
			<text transform="matrix(0.9492 -0.0733 0.077 0.997 403.0498 139.1436)" stroke="#000000" font-family="'Arial-BoldMT'" font-size="21">Y</text>
	</g>
</g>
<g id="Rect">
	<path fill="none" stroke="#000000" stroke-width="4" stroke-miterlimit="10" d="M323.217,135.891H180.783
		c0,28.399-24.53,51.429-54.783,51.429v94.79v55.463c30.253,0,54.783,23.027,54.783,51.428h142.434
		c0-28.4,24.532-51.428,54.783-51.428v-55.463v-94.79C347.749,187.32,323.217,164.29,323.217,135.891z"/>
</g>
<g id="Windmill">
	<g>
		<path fill-rule="evenodd" clip-rule="evenodd" stroke="#000000" stroke-width="2" stroke-miterlimit="10" d="M147.077,226.968
			c-0.924,0.138-1.868,0.131-3.077-0.393c32.073-23.103,65.885-43.166,99.182-64.05c7.853,11.359,14.231,11.237,19.699-0.225
			c3.801,3.307,7.927,1.955,11.828,0.515c5.161-1.91,9.425-0.993,13.772,2.492c16.337,13.094,32.94,25.831,49.247,38.967
			c6.557,5.282,12.68,11.166,18.857,16.938c2.19,2.045,3.965,4.578,5.458,7.517c-35.613-17.22-68.55-39.292-103.108-59.174
			c6.041,88.854,5.938,179.432,8.658,219.444c-12.336,0-18.729,0-30.898,0c4.078-64.068,7.063-154.875,11.151-219.119
			c-4.492,1.023-5.428,4.297-5.802,7.582c-0.861,7.596-5.08,10.832-11.532,14.025c-26.244,12.992-52.895,25.767-80.646,34.826
			C148.958,226.608,148.018,226.828,147.077,226.968z"/>
		<path fill-rule="evenodd" clip-rule="evenodd" stroke="#000000" stroke-width="2" stroke-miterlimit="10" d="M255.155,29.319
			c0.731,41.037,1.462,82.073,2.198,123.25c-2.883,0-5.092,0-7.871,0c0.742-6.319-3.542-9.77-7.341-13.498
			c-2.723-2.674-4.109-5.708-3.605-9.767c3.487-28.018,6.785-56.062,10.388-84.064c0.706-5.49,2.48-10.831,3.762-16.241
			C253.509,29.106,254.332,29.213,255.155,29.319z"/>
		<path fill-rule="evenodd" clip-rule="evenodd" stroke="#000000" stroke-width="2" stroke-miterlimit="10" d="M259.561,161.396
			c0.082,3.629-2.691,6.451-6.126,6.495c-3.615,0.047-6.374-2.808-6.366-6.587c0.005-2.826,3.543-6.462,6.452-6.184
			C257.165,155.468,259.159,157.855,259.561,161.396z"/>
	</g>
</g>
<g id="Wheat">
	<g>
		<path fill-rule="evenodd" clip-rule="evenodd" d="M48.93,265.477c3.229,3.038,6.996,5.683,9.577,9.197
			c5.509,7.5,15.157,22.87,15.081,36.32c-4.909-0.353-8.736-2.452-11.594-6.384c-6.748-9.283-10.854-19.612-12.286-31.009
			c-0.071-0.562-0.51-1.077-0.778-1.614C48.93,269.817,48.93,267.646,48.93,265.477z"/>
		<path fill-rule="evenodd" clip-rule="evenodd" d="M81.636,324.331c5.605,9.939,10.954,20.707,17.516,30.676
			c5.821,8.842,12.91,16.86,19.584,25.126c9.37,11.602,21.834,19.403,34.091,27.461c25.661,16.87,54.192,23.692,84.518,24.53
			c8.644,0.239,17.399,0.314,25.869,1.803c6.954,1.222,13.58,4.374,20.294,6.827c0.796,0.291,1.229,1.569,2.067,2.712
			c-7.996-1.737-15.429-3.854-23.01-4.892c-14.007-1.918-28.126-3.007-42.153-4.799c-22.716-2.903-44.712-8.708-64.124-21.125
			c-12.257-7.839-24.243-16.613-34.651-26.72c-17.627-17.113-30.979-37.523-39.878-60.62
			C81.563,324.797,81.62,324.185,81.636,324.331z"/>
		<path fill-rule="evenodd" clip-rule="evenodd" d="M172.379,446.639c18.032-9.573,35.748-12.902,55.669-7.906
			c-2.716,2.645-4.993,6.341-8.246,7.699c-5.744,2.397-12.003,4.098-18.191,4.773C192.036,452.25,182.685,450.177,172.379,446.639z"
			/>
		<path fill-rule="evenodd" clip-rule="evenodd" d="M131.578,422.655c18.371-3.94,36.192-2.685,53.639,5.326
			c-4.623,7.515-17.745,10.772-25.047,7.475c-3.867-1.746-8.378-2.021-12.353-3.586c-5.664-2.228-11.101-5.03-16.635-7.587
			C131.313,423.741,131.446,423.198,131.578,422.655z"/>
		<path fill-rule="evenodd" clip-rule="evenodd" d="M97.715,391.117c18.237,0.938,35.076,5.706,49.849,18.345
			c-4.271,4.443-9.049,4.752-13.945,4.458c-10.549-0.635-18.387-7.08-26.492-12.771c-3.616-2.537-6.739-5.778-10.086-8.7
			C97.265,392.005,97.49,391.561,97.715,391.117z"/>
		<path fill-rule="evenodd" clip-rule="evenodd" d="M70.818,351.513c6.831,1.303,12.664,3.478,17.786,7.608
			c7.171,5.783,14.646,11.2,21.661,17.16c1.908,1.621,2.634,4.634,3.902,7.009c-2.73,0.46-5.562,1.591-8.164,1.2
			c-2.851-0.427-5.584-2.085-8.206-3.508C85.614,374.371,76.85,364.585,70.818,351.513z"/>
		<path fill-rule="evenodd" clip-rule="evenodd" d="M227.302,429.15c-17.589,2.394-34.967-11.039-37.654-29.104
			C206.843,404.228,227.167,419.937,227.302,429.15z"/>
		<path fill-rule="evenodd" clip-rule="evenodd" d="M89.847,348.84c-6.121,0.771-10.901-1.573-15.073-5.151
			c-10.451-8.962-15.637-21.022-19.854-33.968C67.716,313.022,85.351,333.416,89.847,348.84z"/>
		<path fill-rule="evenodd" clip-rule="evenodd" d="M157.276,383.881c12.781,10.563,27.977,18.688,30.578,37.732
			C170.249,419.605,155.063,400.697,157.276,383.881z"/>
		<path fill-rule="evenodd" clip-rule="evenodd" d="M108.874,330.939c6.866,15.255,16.474,29.073,11.679,46.82
			C106.611,370.597,100.064,344.868,108.874,330.939z"/>
		<path fill-rule="evenodd" clip-rule="evenodd" d="M151.351,403.356c-17.135-5.449-26.303-27.743-21.078-42.498
			C140.808,373.343,151.45,385.237,151.351,403.356z"/>
		<path fill-rule="evenodd" clip-rule="evenodd" d="M52.344,222.979c10.293,14.768,15.737,30.434,14.097,48.308
			c-4.374-0.472-6.811-3.419-8.827-6.65c-5.882-9.434-6.665-20.002-6.34-30.729C51.384,230.258,51.974,226.622,52.344,222.979z"/>
		<path fill-rule="evenodd" clip-rule="evenodd" d="M95.28,297.479c2.67,16.101,9.012,31.676,1.052,48.021
			C84.389,334.956,83.765,307.628,95.28,297.479z"/>
		<path fill-rule="evenodd" clip-rule="evenodd" d="M68.132,233.217c-5.757-2.767-7.138-7.443-8.225-12.023
			c-3.139-13.221-0.626-25.838,4.803-39.401C71.813,199.167,71.666,215.669,68.132,233.217z"/>
		<path fill-rule="evenodd" clip-rule="evenodd" d="M80.354,309.617c-8.029-12.099-5.28-36.938,8.594-45.775
			C89.195,279.77,90.769,295.393,80.354,309.617z"/>
		<path fill-rule="evenodd" clip-rule="evenodd" d="M72.761,271.6c-4.857-15.428,2.966-35.847,17.704-41.646
			C86.721,244.978,86.765,260.731,72.761,271.6z"/>
		<path fill-rule="evenodd" clip-rule="evenodd" d="M98.838,195.862c-5.785,15.204-11.169,29.316-25.062,38.762
			C70.407,219.549,83.535,200.729,98.838,195.862z"/>
		<path fill-rule="evenodd" clip-rule="evenodd" d="M95.594,161.533c-3.662,16.772-7.988,32.841-19.892,46.41
			C71.59,192.509,81.651,169.41,95.594,161.533z"/>
	</g>
	<g>
		<path fill-rule="evenodd" clip-rule="evenodd" d="M446.575,265.477c-3.229,3.038-6.996,5.683-9.577,9.197
			c-5.509,7.5-15.156,22.87-15.08,36.32c4.908-0.353,8.735-2.452,11.594-6.384c6.748-9.283,10.854-19.612,12.286-31.009
			c0.07-0.562,0.51-1.077,0.777-1.614C446.575,269.817,446.575,267.646,446.575,265.477z"/>
		<path fill-rule="evenodd" clip-rule="evenodd" d="M413.869,324.331c-5.605,9.939-10.953,20.707-17.516,30.676
			c-5.82,8.842-12.91,16.86-19.584,25.126c-9.371,11.602-21.835,19.403-34.092,27.461c-25.66,16.87-54.191,23.692-84.518,24.53
			c-8.644,0.239-17.399,0.314-25.869,1.803c-6.954,1.222-13.58,4.374-20.294,6.827c-0.796,0.291-1.229,1.569-2.067,2.712
			c7.996-1.737,15.429-3.854,23.01-4.892c14.007-1.918,28.126-3.007,42.152-4.799c22.717-2.903,44.713-8.708,64.124-21.125
			c12.257-7.839,24.243-16.613,34.651-26.72c17.627-17.113,30.979-37.523,39.878-60.62
			C413.943,324.797,413.886,324.185,413.869,324.331z"/>
		<path fill-rule="evenodd" clip-rule="evenodd" d="M323.127,446.639c-18.032-9.573-35.748-12.902-55.67-7.906
			c2.717,2.645,4.993,6.341,8.246,7.699c5.744,2.397,12.004,4.098,18.191,4.773C303.47,452.25,312.82,450.177,323.127,446.639z"/>
		<path fill-rule="evenodd" clip-rule="evenodd" d="M363.928,422.655c-18.371-3.94-36.191-2.685-53.639,5.326
			c4.623,7.515,17.744,10.772,25.047,7.475c3.867-1.746,8.379-2.021,12.354-3.586c5.663-2.228,11.101-5.03,16.635-7.587
			C364.192,423.741,364.061,423.198,363.928,422.655z"/>
		<path fill-rule="evenodd" clip-rule="evenodd" d="M397.791,391.117c-18.236,0.938-35.076,5.706-49.85,18.345
			c4.271,4.443,9.049,4.752,13.945,4.458c10.549-0.635,18.388-7.08,26.492-12.771c3.617-2.537,6.74-5.778,10.087-8.7
			C398.241,392.005,398.016,391.561,397.791,391.117z"/>
		<path fill-rule="evenodd" clip-rule="evenodd" d="M424.688,351.513c-6.83,1.303-12.663,3.478-17.785,7.608
			c-7.172,5.783-14.646,11.2-21.661,17.16c-1.907,1.621-2.634,4.634-3.902,7.009c2.73,0.46,5.562,1.591,8.164,1.2
			c2.851-0.427,5.585-2.085,8.206-3.508C409.893,374.371,418.656,364.585,424.688,351.513z"/>
		<path fill-rule="evenodd" clip-rule="evenodd" d="M268.203,429.15c17.59,2.394,34.968-11.039,37.654-29.104
			C288.662,404.228,268.34,419.937,268.203,429.15z"/>
		<path fill-rule="evenodd" clip-rule="evenodd" d="M405.658,348.84c6.121,0.771,10.901-1.573,15.073-5.151
			c10.451-8.962,15.637-21.022,19.854-33.968C427.789,313.022,410.155,333.416,405.658,348.84z"/>
		<path fill-rule="evenodd" clip-rule="evenodd" d="M338.229,383.881c-12.781,10.563-27.977,18.688-30.577,37.732
			C325.258,419.605,340.443,400.697,338.229,383.881z"/>
		<path fill-rule="evenodd" clip-rule="evenodd" d="M386.633,330.939c-6.867,15.255-16.475,29.073-11.68,46.82
			C388.895,370.597,395.441,344.868,386.633,330.939z"/>
		<path fill-rule="evenodd" clip-rule="evenodd" d="M344.154,403.356c17.136-5.449,26.303-27.743,21.078-42.498
			C354.698,373.343,344.056,385.237,344.154,403.356z"/>
		<path fill-rule="evenodd" clip-rule="evenodd" d="M443.162,222.979c-10.293,14.768-15.737,30.434-14.097,48.308
			c4.373-0.472,6.811-3.419,8.826-6.65c5.883-9.434,6.665-20.002,6.34-30.729C444.121,230.258,443.532,226.622,443.162,222.979z"/>
		<path fill-rule="evenodd" clip-rule="evenodd" d="M400.226,297.479c-2.671,16.101-9.012,31.676-1.052,48.021
			C411.117,334.956,411.741,307.628,400.226,297.479z"/>
		<path fill-rule="evenodd" clip-rule="evenodd" d="M427.374,233.217c5.757-2.767,7.138-7.443,8.225-12.023
			c3.139-13.221,0.626-25.838-4.803-39.401C423.693,199.167,423.84,215.669,427.374,233.217z"/>
		<path fill-rule="evenodd" clip-rule="evenodd" d="M415.152,309.617c8.029-12.099,5.28-36.938-8.594-45.775
			C406.311,279.77,404.737,295.393,415.152,309.617z"/>
		<path fill-rule="evenodd" clip-rule="evenodd" d="M422.745,271.6c4.857-15.428-2.966-35.847-17.704-41.646
			C408.785,244.978,408.741,260.731,422.745,271.6z"/>
		<path fill-rule="evenodd" clip-rule="evenodd" d="M396.668,195.862c5.785,15.204,11.168,29.316,25.062,38.762
			C425.099,219.549,411.971,200.729,396.668,195.862z"/>
		<path fill-rule="evenodd" clip-rule="evenodd" d="M399.912,161.533c3.662,16.772,7.988,32.841,19.892,46.41
			C423.916,192.509,413.854,169.41,399.912,161.533z"/>
	</g>
</g>
<g id="Deepam">
	<g>
		<path fill-rule="evenodd" clip-rule="evenodd" d="M159.153,253.938c0.355,0.307,0.68,0.658,1.069,0.913
			c0.872,0.569,1.743,1.154,2.675,1.612c0.86,0.423,1.785,0.714,2.733,0.935c1.4,0.326,2.811,0.365,4.232,0.327
			c0.399-0.011,0.8-0.055,1.193-0.123c0.728-0.126,1.457-0.254,2.171-0.434c0.885-0.223,1.77-0.459,2.628-0.763
			c0.992-0.351,1.97-0.749,2.926-1.188c0.716-0.329,1.411-0.721,2.072-1.151c0.613-0.4,1.176-0.88,1.747-1.342
			c0.292-0.237,0.405-0.239,0.75,0.051c0.229,0.191,0.472,0.37,0.726,0.528c0.604,0.378,1.215,0.745,1.83,1.106
			c0.285,0.167,0.578,0.325,0.879,0.461c0.723,0.331,1.443,0.669,2.182,0.961c0.782,0.31,1.58,0.585,2.38,0.847
			c0.476,0.155,0.975,0.238,1.455,0.38c1.676,0.497,3.399,0.458,5.114,0.411c0.876-0.024,1.762-0.13,2.619-0.312
			c0.881-0.187,1.754-0.457,2.591-0.791c0.75-0.299,1.483-0.68,2.156-1.125c0.564-0.375,1.032-0.895,1.542-1.35
			c0.036-0.032,0.073-0.063,0.178-0.062c-0.158,0.506-0.309,1.014-0.476,1.517c-0.536,1.612-1.254,3.145-2.106,4.611
			c-0.504,0.867-1.07,1.702-1.652,2.52c-0.855,1.202-1.81,2.326-2.931,3.295c-0.776,0.671-1.552,1.353-2.388,1.946
			c-0.832,0.589-1.735,1.082-2.616,1.601c-0.859,0.506-1.781,0.874-2.721,1.21c-0.93,0.334-1.864,0.639-2.842,0.801
			c-0.667,0.109-1.337,0.215-1.993,0.374c-1.145,0.276-2.31,0.285-3.472,0.293c-1.132,0.007-2.267-0.011-3.398-0.068
			c-0.624-0.031-1.243-0.164-1.863-0.256c-0.474-0.07-0.957-0.114-1.42-0.229c-0.975-0.244-1.948-0.501-2.906-0.803
			c-0.648-0.204-1.287-0.457-1.897-0.752c-1.08-0.523-2.162-1.051-3.139-1.758c-0.449-0.325-0.925-0.616-1.357-0.962
			c-0.542-0.435-1.054-0.905-1.57-1.371c-0.347-0.312-0.696-0.625-1.012-0.967c-0.508-0.554-1.011-1.116-1.475-1.706
			c-0.463-0.59-0.913-1.197-1.301-1.836c-0.598-0.985-1.183-1.984-1.691-3.017c-0.47-0.954-0.844-1.955-1.237-2.944
			c-0.177-0.446-0.294-0.916-0.439-1.375C159.116,253.948,159.135,253.943,159.153,253.938z"/>
		<path fill-rule="evenodd" clip-rule="evenodd" d="M180.581,224.453c0.312,0.364,0.584,0.65,0.82,0.964
			c0.64,0.851,1.284,1.699,1.888,2.575c0.854,1.238,1.637,2.521,2.259,3.892c0.503,1.107,1.019,2.211,1.447,3.347
			c0.603,1.598,1.049,3.247,1.251,4.946c0.129,1.084,0.249,2.175,0.283,3.265c0.05,1.577-0.099,3.141-0.73,4.617
			c-0.407,0.953-0.997,1.773-1.95,2.258c-0.382,0.194-0.803,0.312-1.208,0.462c-0.765,0.284-1.563,0.235-2.334,0.109
			c-1.104-0.182-2.129-0.571-2.975-1.367c-1.209-1.137-1.794-2.561-2.039-4.151c-0.361-2.352,0.069-4.587,1.095-6.712
			c0.374-0.773,0.842-1.502,1.266-2.251c0.672-1.19,1.101-2.467,1.354-3.802c0.213-1.118,0.282-2.25,0.25-3.387
			c-0.042-1.492-0.251-2.961-0.639-4.405c-0.013-0.048-0.03-0.097-0.039-0.146C180.575,224.626,180.581,224.585,180.581,224.453z"/>
	</g>
</g>
<g id="Dish">
	<g>
		<path fill-rule="evenodd" clip-rule="evenodd" d="M341.719,222.373c-0.628,0.325-1.247,0.639-1.86,0.964
			c-0.56,0.297-1.109,0.614-1.67,0.909c-1.661,0.875-3.328,1.74-4.989,2.615c-1.798,0.948-3.594,1.901-5.39,2.853
			c-1.807,0.958-3.614,1.916-5.42,2.877c-1.475,0.784-2.945,1.574-4.418,2.361c-0.078,0.042-0.162,0.073-0.302,0.136
			c-0.281-0.546-0.527-1.105-0.847-1.618c-0.287-0.463-0.309-0.844-0.146-1.398c0.542-1.841-0.82-3.935-2.907-3.889
			c-1.335,0.029-2.221,1.023-2.354,2.306c-0.094,0.916,0.176,1.737,0.762,2.423c0.444,0.52,1.028,0.86,1.729,0.967
			c0.105,0.016,0.238,0.101,0.288,0.192c0.398,0.727,0.779,1.463,1.185,2.23c-0.609,0.329-1.205,0.654-1.806,0.971
			c-2.004,1.058-4.01,2.112-6.014,3.169c-1.306,0.688-2.611,1.376-3.915,2.066c-2.288,1.212-4.576,2.426-6.864,3.638
			c-1.304,0.69-2.61,1.376-3.914,2.067c-0.491,0.261-0.976,0.531-1.467,0.798c6.807,6.643,19.065,10.503,30.907,6.056
			C335.561,250.09,343.639,236.861,341.719,222.373z"/>
		<path fill-rule="evenodd" clip-rule="evenodd" d="M338.479,272c-3.085-5.935-4.997-12.285-6.985-18.685
			c-0.276,0.209-0.519,0.409-0.777,0.584c-1.295,0.876-2.567,1.79-3.9,2.604c-1.403,0.859-2.933,1.471-4.512,1.93
			c-1.335,0.388-2.692,0.699-4.048,1.013c-0.219,0.05-0.286,0.125-0.356,0.317c-0.737,2.008-1.429,4.037-2.254,6.009
			c-0.816,1.956-1.771,3.854-2.665,5.778c-0.057,0.124-0.107,0.25-0.193,0.449C321.371,272,329.878,272,338.479,272z"/>
	</g>
</g>
<g id="Laptop">
	<g>
		<path fill-rule="evenodd" clip-rule="evenodd" d="M334.568,288.734c2.009,0,4.017,0,6.024,0c3.171,0,6.341,0,9.512,0
			c0.317,0,0.635,0,0.951,0c0.313,0.831,0.89,1.659,0.897,2.492c0.066,8.817,0.017,17.637,0.088,26.453
			c0.008,0.833,0.42,1.838,0.98,2.457c2.088,2.309,4.446,4.381,6.418,6.777c0.676,0.82,0.677,2.34,0.614,3.521
			c-0.016,0.295-1.467,0.735-2.259,0.736c-19.483,0.043-38.968,0.035-58.451,0.034c-2.395,0-3.326-1.325-2.379-3.504
			c0.283-0.652,0.837-1.213,1.347-1.738c1.802-1.855,3.592-3.729,5.481-5.493c0.926-0.864,1.287-1.762,1.28-3.03
			c-0.052-8.712-0.031-17.424-0.027-26.136c0.002-2.207,0.096-2.308,2.342-2.31c8.448-0.011,16.896-0.003,25.345-0.021
			C333.345,288.972,333.956,288.817,334.568,288.734z M347.705,316.867c0-7.909,0-15.689,0-23.526c-12.844,0-25.582,0-38.377,0
			c0,7.888,0,15.669,0,23.526C322.137,316.867,334.84,316.867,347.705,316.867z"/>
		<path fill-rule="evenodd" clip-rule="evenodd" fill="#FFFFFF" d="M347.705,316.867c-12.865,0-25.568,0-38.377,0
			c0-7.857,0-15.639,0-23.526c12.795,0,25.533,0,38.377,0C347.705,301.178,347.705,308.958,347.705,316.867z"/>
	</g>
</g>
<g id="Jet">
	<path fill-rule="evenodd" clip-rule="evenodd" d="M171.007,322.989c-0.048,0.273-0.083,0.471-0.13,0.743
		c0.564-0.031,1.111-0.058,1.657-0.088c0.292-0.018,0.581-0.083,0.873-0.054c0.833,0.078,1.164-0.49,1.547-1.003
		c0.341-0.456,0.684-0.909,1.035-1.375c-0.035-0.057-0.056-0.124-0.102-0.163c-1.596-1.333-3.16-2.712-4.808-3.977
		c-0.798-0.613-1.752-1.015-2.638-1.51c-1.13-0.632-2.263-1.261-3.394-1.892c-0.295-0.165-0.479-0.36-0.405-0.719
		c0.2-0.979,0.361-1.972,0.558-2.954c0.08-0.4,0.244-0.774,0.315-1.178c0.184-1.032,0.848-1.178,1.784-1.185
		c1.35-0.013,2.7-0.024,4.051-0.031c0.715-0.002,1.431,0.011,2.146,0.008c0.278,0.001,0.551-0.034,0.828-0.037
		c2.481-0.024,4.963-0.048,7.445-0.07c0.577-0.004,1.158,0.012,1.731-0.014c1.095-0.048,2.183-0.131,3.278-0.176
		c0.818-0.034,1.645-0.021,2.463-0.059c0.178-0.008,0.374-0.104,0.493-0.225c0.57-0.584,1.081-1.229,1.685-1.777
		c0.44-0.399,0.99-0.686,1.493-1.021c0.743-0.495,1.547-0.926,2.218-1.501c0.818-0.702,1.528-1.522,2.279-2.296
		c0.421-0.436,0.714-0.441,1.241,0.002c0.409,0.343,0.833,0.669,1.217,1.038c0.356,0.341,0.602,0.287,0.863,0
		c0.767-0.843,1.54-1.678,2.316-2.511c1.085-1.165,2.137-2.363,3.276-3.478c0.756-0.739,1.623-1.372,2.469-2.018
		c0.949-0.726,1.925-1.422,2.905-2.109c0.234-0.164,0.52-0.281,0.807-0.359c0.504-0.139,0.871,0.169,0.869,0.7
		c-0.001,0.121-0.004,0.254-0.054,0.355c-0.507,1.017-0.978,2.057-1.551,3.031c-0.708,1.207-1.501,2.359-2.262,3.53
		c-0.111,0.171-0.25,0.324-0.384,0.479c-1.56,1.822-3.124,3.641-4.683,5.465c-0.423,0.493-0.417,0.497,0.145,0.979
		c0.43,0.369,0.86,0.738,1.289,1.108c0.29,0.25,0.329,0.473,0.096,0.752c-0.825,0.984-1.678,1.949-2.413,3.001
		c-0.567,0.813-0.958,1.751-1.455,2.615c-0.333,0.579-0.709,1.131-1.083,1.683c-0.156,0.229-0.326,0.463-0.545,0.628
		c-0.643,0.486-0.614,1.206-0.537,1.951c0.169,1.635,0.324,3.27,0.513,4.904c0.176,1.541,0.404,3.084,0.578,4.624
		c0.175,1.548,0.295,3.093,0.471,4.64c0.067,0.593,0.257,1.188,0.336,1.78c0.105,0.798,0.149,1.594,0.233,2.392
		c0.094,0.877,0.204,1.754,0.307,2.633c0.071,0.605-0.214,1.148-0.758,1.359c-1.372,0.531-2.752,1.047-4.127,1.572
		c-0.312,0.119-0.552-0.031-0.748-0.28c-0.626-0.8-1.237-1.609-1.861-2.411c-0.808-1.036-1.553-2.13-2.452-3.086
		c-0.918-0.976-1.989-1.815-2.996-2.711c-0.485-0.432-0.992-0.839-1.463-1.286c-0.281-0.265-0.437-0.228-0.646,0.006
		c-0.407,0.456-0.819,0.913-1.283,1.312c-0.398,0.341-0.448,0.767-0.399,1.277c0.081,0.855,0.129,1.71,0.196,2.621
		c0.223-0.066,0.44-0.131,0.725-0.214c0.036,0.364,0.094,0.712,0.101,1.052c0.04,2.26,0.069,4.52,0.101,6.777
		c0.007,0.552-0.24,0.967-0.743,1.126c-0.686,0.218-1.407,0.352-2.114,0.521c-0.279,0.067-0.46-0.05-0.642-0.306
		c-0.832-1.171-1.686-2.328-2.53-3.491c-0.54-0.742-1.096-1.474-1.613-2.229c-0.527-0.768-0.409-1.489-0.1-2.218
		c0.208-0.49,0.319-1.036,0.417-1.574c0.029-0.161-0.081-0.43-0.216-0.56c-0.758-0.731-1.539-1.443-2.324-2.148
		c-0.188-0.167-0.479-0.243-0.625-0.43c-0.767-0.98-1.969-1.402-2.812-2.281c-0.234-0.243-0.521-0.63-0.757-0.641
		c-0.41-0.019-0.818,0.173-1.193,0.338c-0.45,0.198-0.856,0.474-1.295,0.692c-0.51,0.254-1.095,0.08-1.58-0.154
		c-1.43-0.691-2.823-1.474-4.234-2.212c-0.618-0.322-1.24-0.643-1.875-0.924c-0.403-0.179-0.559-0.436-0.522-0.816
		c0.064-0.676,0.163-1.345,0.195-2.026c0.023-0.483,0.61-0.863,1.093-0.932c1.748-0.24,3.491-0.496,5.241-0.729
		C169.316,323.146,170.109,323.082,171.007,322.989z"/>
</g>
</svg>
